<svg xmlns="http://www.w3.org/2000/svg" xmlns:xlink="http://www.w3.org/1999/xlink" width="121" zoomAndPan="magnify" viewBox="0 0 90.75 74.999997" height="100" preserveAspectRatio="xMidYMid meet" version="1.0"><defs><clipPath id="89e0041fb1"><path d="M 0 0.101562 L 90.5 0.101562 L 90.5 74.894531 L 0 74.894531 Z M 0 0.101562 " clip-rule="nonzero"/></clipPath></defs><path fill="#3e4c4c" d="M 44.367188 10.890625 L 48.785156 10.890625 L 51.082031 11.332031 L 51.347656 11.417969 L 52.671875 11.507812 L 53.46875 11.863281 L 53.46875 12.039062 L 54 12.125 L 54.707031 12.390625 L 54.972656 12.65625 L 56.121094 13.277344 L 56.472656 13.363281 L 56.472656 13.542969 L 56.648438 13.542969 L 56.648438 13.71875 L 57.003906 13.804688 L 57.621094 14.070312 L 58.683594 14.867188 L 60.183594 16.015625 L 61.953125 17.785156 L 62.128906 18.226562 L 62.480469 18.667969 L 62.746094 19.109375 L 63.367188 19.90625 L 64.25 21.585938 L 64.691406 22.46875 L 64.691406 22.734375 L 64.867188 22.734375 L 65.308594 23.972656 L 65.308594 24.238281 L 65.488281 24.238281 L 65.488281 24.414062 L 65.664062 24.414062 L 65.839844 25.121094 L 65.839844 26.273438 L 66.015625 26.273438 L 66.195312 27.246094 L 66.195312 30.691406 L 66.015625 32.371094 L 65.839844 33.609375 L 65.664062 34.140625 L 65.308594 35.378906 L 65.132812 35.820312 L 64.867188 37.058594 L 64.601562 37.5 L 64.425781 38.382812 L 64.074219 39.089844 L 63.894531 39.179688 L 63.628906 40.0625 L 63.367188 40.152344 L 63.1875 40.859375 L 62.746094 41.832031 L 62.570312 42.539062 L 62.21875 43.335938 L 61.6875 44.21875 L 61.511719 44.660156 L 61.332031 44.75 L 61.15625 45.367188 L 60.804688 46.074219 L 60.183594 47.402344 L 60.007812 47.402344 L 59.917969 47.753906 L 59.476562 48.199219 L 58.683594 49.699219 L 58.242188 50.140625 L 57.976562 50.671875 L 57.710938 51.113281 L 57.445312 51.734375 L 56.914062 52.53125 L 56.648438 53.148438 L 56.472656 53.765625 L 56.03125 54.296875 L 55.941406 54.917969 L 55.765625 55.09375 L 55.589844 55.800781 L 55.324219 55.976562 L 55.058594 56.417969 L 54.882812 57.039062 L 54.527344 57.746094 L 54.085938 58.453125 L 54.527344 58.1875 L 54.882812 57.921875 L 56.5625 57.480469 L 58.0625 57.214844 L 59.652344 57.039062 L 59.742188 56.949219 L 60.980469 56.863281 L 61.773438 56.597656 L 63.277344 56.242188 L 65.398438 55.890625 L 65.664062 55.890625 L 65.664062 55.710938 L 66.898438 55.445312 L 67.34375 55.269531 L 68.050781 55.269531 L 68.050781 55.09375 L 69.375 54.652344 L 70.082031 54.652344 L 70.082031 54.472656 L 70.699219 54.296875 L 70.699219 54.121094 L 71.847656 53.765625 L 72.027344 53.589844 L 72.554688 53.414062 L 72.910156 53.414062 L 72.910156 53.238281 L 74.234375 52.707031 L 74.5 52.617188 L 74.589844 52.441406 L 74.765625 52.441406 L 74.851562 52.175781 L 75.738281 51.820312 L 77.417969 50.585938 L 78.386719 49.878906 L 79.183594 49.347656 L 79.714844 48.640625 L 80.242188 48.019531 L 80.949219 47.046875 L 81.304688 46.339844 L 81.570312 45.988281 L 81.921875 44.925781 L 82.1875 44.574219 L 82.363281 44.042969 L 82.453125 43.335938 L 82.453125 41.65625 L 82.1875 40.417969 L 81.835938 39.535156 L 81.835938 39.355469 L 81.65625 39.355469 L 81.214844 38.472656 L 80.773438 37.765625 L 80.507812 37.324219 L 79.714844 36.351562 L 77.769531 34.40625 L 77.503906 34.316406 L 77.152344 33.875 L 76.445312 33.523438 L 76.179688 33.078125 L 75.296875 32.550781 L 75.296875 32.371094 L 74.851562 32.195312 L 73.882812 31.578125 L 72.820312 31.132812 L 72.820312 30.957031 L 72.203125 30.871094 L 71.847656 30.691406 L 71.847656 30.515625 L 71.40625 30.425781 L 70.875 30.074219 L 70.875 29.898438 L 69.992188 29.632812 L 69.726562 29.453125 L 68.578125 29.101562 L 68.136719 28.835938 L 68.136719 28.660156 L 67.34375 28.570312 L 67.34375 28.394531 L 66.898438 28.304688 L 66.457031 28.039062 L 66.546875 27.773438 L 67.695312 27.773438 L 69.019531 28.128906 L 70.789062 28.925781 L 70.964844 29.101562 L 71.761719 29.367188 L 71.761719 29.542969 L 72.027344 29.542969 L 72.378906 29.898438 L 72.820312 30.160156 L 73.527344 30.425781 L 74.410156 30.957031 L 75.03125 31.222656 L 75.382812 31.578125 L 76.003906 31.84375 L 76.265625 32.285156 L 76.53125 32.550781 L 76.972656 32.726562 L 77.152344 32.902344 L 77.769531 33.167969 L 78.742188 34.230469 L 79.183594 34.671875 L 79.890625 35.289062 L 80.507812 35.996094 L 81.128906 36.792969 L 81.394531 36.96875 L 81.570312 37.410156 L 81.921875 37.855469 L 82.097656 38.296875 L 82.71875 39.269531 L 82.984375 39.886719 L 82.984375 40.242188 L 83.160156 40.242188 L 83.425781 40.769531 L 83.691406 42.097656 L 83.691406 44.128906 L 83.601562 45.367188 L 83.511719 45.722656 L 83.335938 45.722656 L 83.335938 46.253906 L 82.984375 46.960938 L 82.804688 47.402344 L 82.097656 48.550781 L 81.394531 49.523438 L 81.039062 50.054688 L 80.066406 51.027344 L 79.625 51.292969 L 78.566406 52.265625 L 77.238281 53.148438 L 76.53125 53.414062 L 76.089844 53.679688 L 75.207031 53.945312 L 74.851562 54.296875 L 74.148438 54.5625 L 73.441406 55.003906 L 72.027344 55.535156 L 71.496094 55.710938 L 71.40625 55.890625 L 70.433594 56.242188 L 69.816406 56.332031 L 68.402344 57.039062 L 66.8125 57.480469 L 66.371094 57.480469 L 66.371094 57.65625 L 64.867188 58.011719 L 63.984375 58.1875 L 63.011719 58.363281 L 61.773438 58.453125 L 61.332031 58.628906 L 56.914062 59.070312 L 56.914062 59.25 L 56.738281 59.335938 L 54.351562 59.335938 L 54.175781 59.160156 L 53.820312 59.160156 L 53.378906 59.601562 L 53.203125 59.601562 L 53.027344 60.132812 L 52.585938 60.75 L 52.144531 61.546875 L 51.964844 61.988281 L 51.789062 61.988281 L 51.613281 62.429688 L 51.347656 63.050781 L 50.996094 63.492188 L 50.816406 63.933594 L 50.640625 63.933594 L 50.464844 64.289062 L 50.375 64.464844 L 50.199219 64.464844 L 50.109375 64.816406 L 49.667969 65.527344 L 49.402344 66.320312 L 48.875 67.117188 L 48.695312 67.382812 L 48.519531 67.382812 L 48.253906 68.179688 L 47.636719 68.886719 L 46.929688 69.503906 L 46.3125 69.503906 L 45.867188 69.0625 L 45.515625 68.707031 L 45.25 68.265625 L 44.984375 68 L 44.632812 67.292969 L 44.277344 67.207031 L 43.925781 66.5 L 43.925781 66.144531 L 43.75 66.144531 L 43.394531 65.4375 L 43.394531 65.261719 L 43.128906 65.171875 L 42.863281 64.464844 L 42.421875 64.109375 L 42.15625 63.492188 L 41.714844 62.609375 L 41.628906 62.253906 L 41.363281 61.988281 L 41.007812 61.195312 L 40.832031 60.75 L 40.566406 60.664062 L 40.214844 60.132812 L 40.035156 59.691406 L 39.507812 58.984375 L 39.242188 58.894531 L 39.152344 59.160156 L 37.738281 59.160156 L 37.207031 58.984375 L 36.503906 58.894531 L 36.503906 58.71875 L 35.617188 58.71875 L 33.851562 58.542969 L 31.199219 58.097656 L 30.050781 57.835938 L 28.992188 57.746094 L 28.992188 57.570312 L 28.195312 57.570312 L 27.488281 57.390625 L 26.339844 57.214844 L 25.191406 56.949219 L 24.21875 56.773438 L 24.128906 56.683594 L 23.160156 56.507812 L 22.007812 56.242188 L 21.304688 55.976562 L 21.304688 55.800781 L 19.976562 55.535156 L 18.121094 55.003906 L 17.0625 54.5625 L 16 54.296875 L 15.734375 54.121094 L 15.734375 53.945312 L 14.851562 53.765625 L 14.144531 53.324219 L 12.730469 52.882812 L 11.582031 52.351562 L 11.492188 52.085938 L 10.523438 51.644531 L 9.726562 51.113281 L 9.285156 50.851562 L 8.753906 50.496094 L 8.3125 50.140625 L 8.222656 49.964844 L 7.78125 49.699219 L 7.339844 49.257812 L 6.722656 48.460938 L 6.28125 48.019531 L 5.925781 47.667969 L 5.484375 46.78125 L 5.21875 46.253906 L 5.21875 46.074219 L 4.953125 45.988281 L 4.601562 45.015625 L 4.511719 44.574219 L 4.511719 42.714844 L 4.777344 41.300781 L 5.21875 40.152344 L 5.398438 39.710938 L 5.574219 39.710938 L 5.839844 38.914062 L 6.105469 38.824219 L 6.191406 38.382812 L 6.632812 37.941406 L 6.808594 37.855469 L 6.988281 37.410156 L 7.429688 36.96875 L 7.78125 36.351562 L 9.019531 35.023438 L 9.460938 34.582031 L 10.167969 33.964844 L 10.875 33.34375 L 11.492188 32.8125 L 11.9375 32.550781 L 12.90625 31.929688 L 14.234375 31.222656 L 15.117188 30.871094 L 15.292969 30.605469 L 15.914062 30.339844 L 17.0625 29.808594 L 17.945312 29.453125 L 19.09375 29.101562 L 20.332031 28.570312 L 21.125 28.394531 L 21.480469 28.21875 L 22.273438 28.128906 L 22.273438 27.953125 L 23.511719 27.6875 L 24.660156 27.332031 L 24.835938 27.246094 L 25.722656 27.15625 L 26.871094 27.15625 L 27.046875 27.597656 L 26.164062 27.6875 L 26.164062 27.953125 L 25.722656 28.128906 L 23.953125 28.394531 L 21.832031 29.101562 L 21.65625 29.101562 L 21.65625 29.277344 L 19.976562 29.808594 L 19.09375 30.160156 L 18.828125 30.160156 L 18.828125 30.339844 L 18.121094 30.691406 L 17.328125 31.046875 L 17.0625 31.222656 L 16.53125 31.398438 L 15.824219 31.664062 L 15.382812 32.019531 L 14.761719 32.371094 L 14.320312 32.726562 L 13.527344 33.257812 L 13.085938 33.609375 L 12.464844 33.964844 L 11.757812 34.492188 L 11.140625 35.203125 L 10.433594 35.820312 L 9.460938 36.882812 L 8.929688 37.589844 L 8.753906 38.03125 L 8.136719 38.914062 L 7.429688 40.242188 L 7.339844 40.683594 L 7.164062 40.683594 L 6.988281 41.566406 L 6.898438 42.449219 L 6.898438 44.21875 L 6.988281 45.101562 L 7.164062 45.101562 L 7.429688 46.429688 L 7.695312 46.519531 L 7.695312 46.695312 L 7.871094 46.695312 L 8.488281 47.667969 L 8.753906 47.933594 L 9.019531 48.375 L 9.992188 49.171875 L 10.609375 49.699219 L 11.40625 50.230469 L 11.582031 50.496094 L 12.199219 50.761719 L 12.199219 50.9375 L 12.554688 51.027344 L 13.878906 51.644531 L 13.96875 51.820312 L 15.117188 52.265625 L 16 52.53125 L 17.414062 53.148438 L 19.535156 53.855469 L 19.976562 54.121094 L 19.976562 54.296875 L 21.214844 54.386719 L 22.007812 54.652344 L 22.714844 54.917969 L 23.160156 55.09375 L 23.953125 55.183594 L 24.042969 55.445312 L 24.925781 55.535156 L 26.074219 55.710938 L 27.222656 56.066406 L 28.8125 56.242188 L 31.023438 56.597656 L 31.023438 56.773438 L 31.90625 56.863281 L 31.90625 57.039062 L 34.027344 57.304688 L 35.53125 57.390625 L 35.617188 57.480469 L 38.535156 57.570312 L 38.445312 57.125 L 38.09375 56.683594 L 38.003906 56.332031 L 37.738281 56.066406 L 37.386719 55.269531 L 37.386719 55.09375 L 37.207031 55.09375 L 36.679688 54.210938 L 36.503906 53.589844 L 36.324219 53.589844 L 35.972656 52.972656 L 35.53125 52.53125 L 35 51.46875 L 34.824219 50.851562 L 34.644531 50.320312 L 34.46875 50.320312 L 34.382812 49.613281 L 33.9375 48.816406 L 33.9375 48.550781 L 33.585938 48.550781 L 33.230469 47.84375 L 32.789062 46.78125 L 32.703125 46.519531 L 32.527344 46.429688 L 31.996094 45.015625 L 31.730469 44.394531 L 31.640625 43.6875 L 30.757812 42.007812 L 30.582031 41.214844 L 30.40625 41.214844 L 30.140625 40.59375 L 30.140625 40.328125 L 29.960938 40.328125 L 29.609375 39.535156 L 29.078125 38.03125 L 28.726562 36.96875 L 28.460938 36.351562 L 28.019531 34.492188 L 27.664062 33.699219 L 27.3125 31.488281 L 27.222656 30.605469 L 27.222656 27.6875 L 27.488281 27.066406 L 27.84375 24.859375 L 28.019531 24.414062 L 28.195312 24.414062 L 28.285156 23.796875 L 28.550781 22.914062 L 28.726562 22.914062 L 28.8125 22.292969 L 28.992188 21.675781 L 29.519531 20.703125 L 29.875 20.171875 L 30.316406 19.289062 L 30.847656 18.402344 L 31.199219 17.875 L 31.640625 17.695312 L 32.082031 17.253906 L 32.261719 16.8125 L 33.761719 15.308594 L 34.46875 14.691406 L 35.441406 13.984375 L 35.796875 13.804688 L 36.148438 13.453125 L 37.386719 12.832031 L 38.445312 12.214844 L 39.773438 11.597656 L 41.097656 11.242188 L 42.511719 11.066406 L 42.777344 10.976562 Z M 44.367188 10.890625 " fill-opacity="1" fill-rule="nonzero"/><path fill="#e4b561" d="M 44.367188 10.890625 L 48.785156 10.890625 L 51.082031 11.332031 L 51.347656 11.417969 L 52.671875 11.507812 L 53.46875 11.863281 L 53.46875 12.039062 L 54 12.125 L 54.707031 12.390625 L 54.972656 12.65625 L 56.121094 13.277344 L 56.472656 13.363281 L 56.472656 13.542969 L 56.648438 13.542969 L 56.648438 13.71875 L 57.003906 13.804688 L 57.621094 14.070312 L 58.683594 14.867188 L 60.183594 16.015625 L 61.953125 17.785156 L 62.128906 18.226562 L 62.480469 18.667969 L 62.746094 19.109375 L 63.367188 19.90625 L 64.25 21.585938 L 64.691406 22.46875 L 64.691406 22.734375 L 64.867188 22.734375 L 65.308594 23.972656 L 65.308594 24.238281 L 65.488281 24.238281 L 65.488281 24.414062 L 65.664062 24.414062 L 65.839844 25.121094 L 65.839844 26.273438 L 66.015625 26.273438 L 66.195312 27.246094 L 66.195312 30.691406 L 66.015625 32.371094 L 65.839844 33.609375 L 65.664062 34.140625 L 65.308594 35.378906 L 65.132812 35.820312 L 64.867188 37.058594 L 64.601562 37.5 L 64.425781 38.382812 L 64.074219 39.089844 L 63.894531 39.179688 L 63.628906 40.0625 L 63.367188 40.152344 L 63.1875 40.859375 L 62.746094 41.832031 L 62.570312 42.539062 L 62.21875 43.335938 L 61.6875 44.21875 L 61.511719 44.660156 L 61.332031 44.75 L 61.15625 45.367188 L 60.804688 46.074219 L 60.183594 47.402344 L 60.007812 47.402344 L 59.917969 47.753906 L 59.476562 48.199219 L 58.683594 49.699219 L 58.242188 50.140625 L 57.976562 50.671875 L 57.710938 51.113281 L 57.445312 51.734375 L 56.914062 52.53125 L 56.648438 53.148438 L 56.472656 53.765625 L 56.03125 54.296875 L 55.941406 54.917969 L 55.765625 55.09375 L 55.589844 55.800781 L 55.324219 55.976562 L 55.058594 56.417969 L 54.882812 57.039062 L 54.527344 57.746094 L 54.085938 58.453125 L 54.527344 58.1875 L 54.882812 57.921875 L 56.5625 57.480469 L 58.0625 57.214844 L 59.652344 57.039062 L 59.742188 56.949219 L 60.980469 56.863281 L 61.773438 56.597656 L 63.277344 56.242188 L 65.398438 55.890625 L 65.664062 55.890625 L 65.664062 55.710938 L 66.898438 55.445312 L 67.34375 55.269531 L 68.050781 55.269531 L 68.050781 55.09375 L 69.375 54.652344 L 70.082031 54.652344 L 70.082031 54.472656 L 70.699219 54.296875 L 70.699219 54.121094 L 71.847656 53.765625 L 72.027344 53.589844 L 72.554688 53.414062 L 72.910156 53.414062 L 72.910156 53.238281 L 74.234375 52.707031 L 74.5 52.617188 L 74.589844 52.441406 L 74.765625 52.441406 L 74.851562 52.175781 L 75.738281 51.820312 L 77.417969 50.585938 L 78.386719 49.878906 L 79.183594 49.347656 L 79.714844 48.640625 L 80.242188 48.019531 L 80.949219 47.046875 L 81.304688 46.339844 L 81.570312 45.988281 L 81.921875 44.925781 L 82.1875 44.574219 L 82.363281 44.042969 L 82.453125 43.335938 L 82.453125 41.65625 L 82.1875 40.417969 L 81.835938 39.535156 L 81.835938 39.355469 L 81.65625 39.355469 L 81.214844 38.472656 L 80.773438 37.765625 L 80.507812 37.324219 L 79.714844 36.351562 L 77.769531 34.40625 L 77.503906 34.316406 L 77.152344 33.875 L 76.445312 33.523438 L 76.179688 33.078125 L 75.296875 32.550781 L 75.296875 32.371094 L 74.851562 32.195312 L 73.882812 31.578125 L 72.820312 31.132812 L 72.820312 30.957031 L 72.203125 30.871094 L 71.847656 30.691406 L 71.847656 30.515625 L 71.40625 30.425781 L 70.875 30.074219 L 70.875 29.898438 L 69.992188 29.632812 L 69.726562 29.453125 L 68.578125 29.101562 L 68.136719 28.835938 L 68.136719 28.660156 L 67.34375 28.570312 L 67.34375 28.394531 L 66.898438 28.304688 L 66.457031 28.039062 L 66.546875 27.773438 L 67.695312 27.773438 L 69.019531 28.128906 L 70.789062 28.925781 L 70.964844 29.101562 L 71.761719 29.367188 L 71.761719 29.542969 L 72.027344 29.542969 L 72.378906 29.898438 L 72.820312 30.160156 L 73.527344 30.425781 L 74.410156 30.957031 L 75.03125 31.222656 L 75.382812 31.578125 L 76.003906 31.84375 L 76.265625 32.285156 L 76.53125 32.550781 L 76.972656 32.726562 L 77.152344 32.902344 L 77.769531 33.167969 L 78.742188 34.230469 L 79.183594 34.671875 L 79.890625 35.289062 L 80.507812 35.996094 L 81.128906 36.792969 L 81.394531 36.96875 L 81.570312 37.410156 L 81.921875 37.855469 L 82.097656 38.296875 L 82.71875 39.269531 L 82.984375 39.886719 L 82.984375 40.242188 L 83.160156 40.242188 L 83.425781 40.769531 L 83.691406 42.097656 L 83.691406 44.128906 L 83.601562 45.367188 L 83.511719 45.722656 L 83.335938 45.722656 L 83.335938 46.253906 L 82.984375 46.960938 L 82.804688 47.402344 L 82.097656 48.550781 L 81.394531 49.523438 L 81.039062 50.054688 L 80.066406 51.027344 L 79.625 51.292969 L 78.566406 52.265625 L 77.238281 53.148438 L 76.53125 53.414062 L 76.089844 53.679688 L 75.207031 53.945312 L 74.851562 54.296875 L 74.148438 54.5625 L 73.441406 55.003906 L 72.027344 55.535156 L 71.496094 55.710938 L 71.40625 55.890625 L 70.433594 56.242188 L 69.816406 56.332031 L 68.402344 57.039062 L 66.8125 57.480469 L 66.371094 57.480469 L 66.371094 57.65625 L 64.867188 58.011719 L 63.984375 58.1875 L 63.011719 58.363281 L 61.773438 58.453125 L 61.332031 58.628906 L 56.914062 59.070312 L 56.914062 59.25 L 56.738281 59.335938 L 54.351562 59.335938 L 54.175781 59.160156 L 53.820312 59.160156 L 53.378906 59.601562 L 53.203125 59.601562 L 53.027344 60.132812 L 52.585938 60.75 L 52.144531 61.546875 L 51.964844 61.988281 L 51.789062 61.988281 L 51.613281 62.429688 L 51.347656 63.050781 L 50.996094 63.492188 L 50.816406 63.933594 L 50.640625 63.933594 L 50.464844 64.289062 L 50.375 64.464844 L 50.199219 64.464844 L 50.109375 64.816406 L 49.667969 65.527344 L 49.402344 66.320312 L 48.875 67.117188 L 48.695312 67.382812 L 48.519531 67.382812 L 48.253906 68.179688 L 47.636719 68.886719 L 46.929688 69.503906 L 46.3125 69.503906 L 45.867188 69.0625 L 45.515625 68.707031 L 45.25 68.265625 L 44.984375 68 L 44.632812 67.292969 L 44.277344 67.207031 L 43.925781 66.5 L 43.925781 66.144531 L 43.75 66.144531 L 43.394531 65.4375 L 43.394531 65.261719 L 43.128906 65.171875 L 42.863281 64.464844 L 42.421875 64.109375 L 42.15625 63.492188 L 41.714844 62.609375 L 41.628906 62.253906 L 41.363281 61.988281 L 41.007812 61.195312 L 40.832031 60.75 L 40.566406 60.664062 L 40.214844 60.132812 L 40.035156 59.691406 L 39.507812 58.984375 L 39.242188 58.894531 L 39.152344 59.160156 L 37.738281 59.160156 L 37.207031 58.984375 L 36.503906 58.894531 L 36.503906 58.71875 L 35.617188 58.71875 L 33.851562 58.542969 L 31.199219 58.097656 L 30.050781 57.835938 L 28.992188 57.746094 L 28.992188 57.570312 L 28.195312 57.570312 L 27.488281 57.390625 L 26.339844 57.214844 L 25.191406 56.949219 L 24.21875 56.773438 L 24.128906 56.683594 L 23.160156 56.507812 L 22.007812 56.242188 L 21.304688 55.976562 L 21.304688 55.800781 L 19.976562 55.535156 L 18.121094 55.003906 L 17.0625 54.5625 L 16 54.296875 L 15.734375 54.121094 L 15.734375 53.945312 L 14.851562 53.765625 L 14.144531 53.324219 L 12.730469 52.882812 L 11.582031 52.351562 L 11.492188 52.085938 L 10.523438 51.644531 L 9.726562 51.113281 L 9.285156 50.851562 L 8.753906 50.496094 L 8.3125 50.140625 L 8.222656 49.964844 L 7.78125 49.699219 L 7.339844 49.257812 L 6.722656 48.460938 L 6.28125 48.019531 L 5.925781 47.667969 L 5.484375 46.78125 L 5.21875 46.253906 L 5.21875 46.074219 L 4.953125 45.988281 L 4.601562 45.015625 L 4.511719 44.574219 L 4.511719 42.714844 L 4.777344 41.300781 L 5.21875 40.152344 L 5.398438 39.710938 L 5.574219 39.710938 L 5.839844 38.914062 L 6.105469 38.824219 L 6.191406 38.382812 L 6.632812 37.941406 L 6.808594 37.855469 L 6.988281 37.410156 L 7.429688 36.96875 L 7.78125 36.351562 L 9.019531 35.023438 L 9.460938 34.582031 L 10.167969 33.964844 L 10.875 33.34375 L 11.492188 32.8125 L 11.9375 32.550781 L 12.90625 31.929688 L 14.234375 31.222656 L 15.117188 30.871094 L 15.292969 30.605469 L 15.914062 30.339844 L 17.0625 29.808594 L 17.945312 29.453125 L 19.09375 29.101562 L 20.332031 28.570312 L 21.125 28.394531 L 21.480469 28.21875 L 22.273438 28.128906 L 22.273438 27.953125 L 23.511719 27.6875 L 24.660156 27.332031 L 24.835938 27.246094 L 25.722656 27.15625 L 26.871094 27.15625 L 27.046875 27.597656 L 26.164062 27.6875 L 26.164062 27.953125 L 25.722656 28.128906 L 23.953125 28.394531 L 21.832031 29.101562 L 21.65625 29.101562 L 21.65625 29.277344 L 19.976562 29.808594 L 19.09375 30.160156 L 18.828125 30.160156 L 18.828125 30.339844 L 18.121094 30.691406 L 17.328125 31.046875 L 17.0625 31.222656 L 16.53125 31.398438 L 15.824219 31.664062 L 15.382812 32.019531 L 14.761719 32.371094 L 14.320312 32.726562 L 13.527344 33.257812 L 13.085938 33.609375 L 12.464844 33.964844 L 11.757812 34.492188 L 11.140625 35.203125 L 10.433594 35.820312 L 9.460938 36.882812 L 8.929688 37.589844 L 8.753906 38.03125 L 8.136719 38.914062 L 7.429688 40.242188 L 7.339844 40.683594 L 7.164062 40.683594 L 6.988281 41.566406 L 6.898438 42.449219 L 6.898438 44.21875 L 6.988281 45.101562 L 7.164062 45.101562 L 7.429688 46.429688 L 7.695312 46.519531 L 7.695312 46.695312 L 7.871094 46.695312 L 8.488281 47.667969 L 8.753906 47.933594 L 9.019531 48.375 L 9.992188 49.171875 L 10.609375 49.699219 L 11.40625 50.230469 L 11.582031 50.496094 L 12.199219 50.761719 L 12.199219 50.9375 L 12.554688 51.027344 L 13.878906 51.644531 L 13.96875 51.820312 L 15.117188 52.265625 L 16 52.53125 L 17.414062 53.148438 L 19.535156 53.855469 L 19.976562 54.121094 L 19.976562 54.296875 L 21.214844 54.386719 L 22.007812 54.652344 L 22.714844 54.917969 L 23.160156 55.09375 L 23.953125 55.183594 L 24.042969 55.445312 L 24.925781 55.535156 L 26.074219 55.710938 L 27.222656 56.066406 L 28.8125 56.242188 L 31.023438 56.597656 L 31.023438 56.773438 L 31.90625 56.863281 L 31.90625 57.039062 L 34.027344 57.304688 L 35.53125 57.390625 L 35.617188 57.480469 L 38.535156 57.570312 L 38.445312 57.125 L 38.09375 56.683594 L 38.003906 56.332031 L 37.738281 56.066406 L 37.386719 55.269531 L 37.386719 55.09375 L 37.207031 55.09375 L 36.679688 54.210938 L 36.503906 53.589844 L 36.324219 53.589844 L 35.972656 52.972656 L 35.53125 52.53125 L 35 51.46875 L 34.824219 50.851562 L 34.644531 50.320312 L 34.46875 50.320312 L 34.382812 49.613281 L 33.9375 48.816406 L 33.9375 48.550781 L 33.585938 48.550781 L 33.230469 47.84375 L 32.789062 46.78125 L 32.703125 46.519531 L 32.527344 46.429688 L 31.996094 45.015625 L 31.730469 44.394531 L 31.640625 43.6875 L 30.757812 42.007812 L 30.582031 41.214844 L 30.40625 41.214844 L 30.140625 40.59375 L 30.140625 40.328125 L 29.960938 40.328125 L 29.609375 39.535156 L 29.078125 38.03125 L 28.726562 36.96875 L 28.460938 36.351562 L 28.019531 34.492188 L 27.664062 33.699219 L 27.3125 31.488281 L 27.222656 30.605469 L 27.222656 27.6875 L 27.488281 27.066406 L 27.84375 24.859375 L 28.019531 24.414062 L 28.195312 24.414062 L 28.285156 23.796875 L 28.550781 22.914062 L 28.726562 22.914062 L 28.8125 22.292969 L 28.992188 21.675781 L 29.519531 20.703125 L 29.875 20.171875 L 30.316406 19.289062 L 30.847656 18.402344 L 31.199219 17.875 L 31.640625 17.695312 L 32.082031 17.253906 L 32.261719 16.8125 L 33.761719 15.308594 L 34.46875 14.691406 L 35.441406 13.984375 L 35.796875 13.804688 L 36.148438 13.453125 L 37.386719 12.832031 L 38.445312 12.214844 L 39.773438 11.597656 L 41.097656 11.242188 L 42.511719 11.066406 L 42.777344 10.976562 Z M 45.25 12.832031 L 42.597656 13.097656 L 41.273438 13.453125 L 40.390625 13.894531 L 40.390625 14.070312 L 39.683594 14.160156 L 38.800781 14.691406 L 37.914062 15.132812 L 36.679688 15.839844 L 35.707031 16.636719 L 35.265625 16.8125 L 34.734375 17.253906 L 34.203125 17.875 L 33.496094 18.582031 L 33.230469 19.023438 L 32.878906 19.554688 L 32.171875 20.527344 L 31.996094 20.96875 L 31.554688 21.761719 L 31.554688 22.027344 L 31.375 22.027344 L 30.847656 23.089844 L 30.492188 24.503906 L 30.316406 25.035156 L 30.140625 25.652344 L 30.140625 26.183594 L 29.960938 26.183594 L 29.785156 26.714844 L 29.609375 28.570312 L 29.609375 31.664062 L 29.785156 31.664062 L 29.785156 32.285156 L 30.140625 33.964844 L 30.226562 34.140625 L 30.316406 35.113281 L 30.492188 35.113281 L 30.667969 36.085938 L 31.023438 37.144531 L 31.199219 37.5 L 31.375 38.207031 L 31.90625 39.621094 L 32.261719 40.242188 L 33.054688 41.921875 L 33.496094 43.070312 L 33.675781 43.421875 L 33.851562 43.421875 L 33.9375 43.867188 L 34.382812 44.75 L 34.558594 44.75 L 34.644531 45.101562 L 34.910156 45.367188 L 35.175781 45.898438 L 35.351562 45.898438 L 35.53125 46.519531 L 35.796875 46.960938 L 36.058594 47.578125 L 36.324219 48.109375 L 37.121094 49.171875 L 37.472656 49.878906 L 37.738281 50.230469 L 37.828125 50.585938 L 38.003906 50.671875 L 38.535156 51.734375 L 39.152344 52.882812 L 39.417969 53.058594 L 39.773438 53.679688 L 40.035156 54.296875 L 40.476562 55.003906 L 40.65625 55.359375 L 41.007812 55.710938 L 41.183594 56.152344 L 41.363281 56.152344 L 41.539062 56.597656 L 42.070312 57.390625 L 42.335938 58.011719 L 42.953125 58.984375 L 43.660156 60.132812 L 43.925781 60.398438 L 44.191406 60.839844 L 44.453125 61.457031 L 44.984375 62.253906 L 45.339844 62.609375 L 45.691406 63.226562 L 46.398438 63.847656 L 47.105469 63.847656 L 47.726562 63.136719 L 48.078125 62.695312 L 48.34375 62.519531 L 48.519531 62.078125 L 49.582031 60.484375 L 50.730469 58.628906 L 51.257812 57.835938 L 51.699219 56.949219 L 52.40625 55.710938 L 52.496094 55.445312 L 52.671875 55.445312 L 52.851562 55.003906 L 53.203125 54.386719 L 53.558594 54.03125 L 53.820312 53.589844 L 54 52.972656 L 54.265625 52.882812 L 54.265625 52.53125 L 54.441406 52.53125 L 54.707031 51.910156 L 55.324219 50.851562 L 55.324219 50.671875 L 55.589844 50.585938 L 56.121094 49.699219 L 56.121094 49.433594 L 56.382812 49.347656 L 56.5625 48.726562 L 57.089844 47.667969 L 57.445312 47.226562 L 57.621094 46.960938 L 57.621094 46.605469 L 57.796875 46.605469 L 58.0625 45.988281 L 58.328125 45.808594 L 58.949219 44.574219 L 59.125 43.867188 L 59.476562 43.15625 L 59.476562 42.980469 L 59.652344 42.980469 L 60.183594 41.65625 L 60.449219 41.214844 L 60.625 40.507812 L 60.804688 40.507812 L 61.421875 38.914062 L 61.511719 38.648438 L 61.6875 38.648438 L 61.953125 37.765625 L 62.128906 37.5 L 62.128906 37.144531 L 62.304688 37.144531 L 62.480469 36.351562 L 62.660156 36.351562 L 63.101562 35.023438 L 63.277344 34.050781 L 63.542969 33.34375 L 63.542969 32.992188 L 63.71875 32.992188 L 63.984375 32.105469 L 63.984375 27.863281 L 63.808594 25.917969 L 63.542969 25.210938 L 63.453125 24.859375 L 63.277344 24.859375 L 63.277344 24.328125 L 62.925781 23.796875 L 62.660156 23.179688 L 62.304688 22.292969 L 62.039062 22.027344 L 61.953125 21.761719 L 61.773438 21.761719 L 61.597656 21.320312 L 61.246094 20.613281 L 60.980469 20.527344 L 60.890625 20.082031 L 60.097656 19.023438 L 59.390625 18.136719 L 58.59375 17.429688 L 57.976562 16.722656 L 57.535156 16.546875 L 57.179688 16.195312 L 56.382812 15.75 L 55.5 15.222656 L 55.234375 14.957031 L 54.085938 14.335938 L 53.203125 13.984375 L 52.144531 13.542969 L 50.996094 13.1875 L 48.609375 12.832031 Z M 45.25 12.832031 " fill-opacity="1" fill-rule="nonzero"/><path fill="#dcb465" d="M 46.664062 19.199219 L 47.546875 19.199219 L 49.136719 19.640625 L 49.933594 19.816406 L 50.640625 19.996094 L 50.640625 20.171875 L 51.4375 20.4375 L 51.964844 20.789062 L 52.585938 21.054688 L 53.378906 21.675781 L 53.910156 21.941406 L 54.175781 22.292969 L 54.175781 22.558594 L 54.527344 22.648438 L 55.234375 23.53125 L 55.675781 24.238281 L 55.765625 24.503906 L 56.121094 24.859375 L 56.296875 25.210938 L 56.472656 25.917969 L 56.828125 27.066406 L 56.828125 29.808594 L 56.648438 31.046875 L 56.382812 31.664062 L 56.207031 32.460938 L 55.5 33.875 L 55.324219 33.875 L 55.148438 34.316406 L 54.527344 35.289062 L 54.265625 35.730469 L 53.378906 37.058594 L 52.496094 38.207031 L 51.878906 39.003906 L 51.699219 39.445312 L 50.730469 40.59375 L 50.109375 41.390625 L 49.933594 41.832031 L 49.316406 42.449219 L 49.136719 42.714844 L 48.960938 42.714844 L 48.785156 43.15625 L 48.078125 44.042969 L 47.636719 44.574219 L 47.460938 44.574219 L 47.28125 44.925781 L 47.019531 45.191406 L 46.222656 45.191406 L 45.605469 44.574219 L 45.425781 44.21875 L 44.898438 43.777344 L 44.632812 43.335938 L 44.011719 42.804688 L 43.835938 42.539062 L 43.835938 42.273438 L 43.660156 42.273438 L 43.21875 41.65625 L 43.042969 41.566406 L 43.042969 41.390625 L 42.863281 41.390625 L 42.597656 40.769531 L 41.804688 39.796875 L 41.449219 39.269531 L 41.273438 38.824219 L 41.097656 38.824219 L 40.476562 37.855469 L 40.035156 37.234375 L 39.773438 37.058594 L 39.683594 36.792969 L 39.417969 36.703125 L 39.152344 36.261719 L 38.710938 35.820312 L 38.535156 35.203125 L 38.359375 34.757812 L 38.003906 34.671875 L 37.296875 33.167969 L 37.296875 32.992188 L 37.121094 32.992188 L 36.765625 32.285156 L 36.414062 30.871094 L 36.238281 29.632812 L 36.238281 27.773438 L 36.324219 27.597656 L 36.503906 27.597656 L 36.589844 26.625 L 37.121094 25.742188 L 37.472656 24.859375 L 37.828125 24.328125 L 38.003906 24.238281 L 38.269531 23.621094 L 38.976562 22.734375 L 39.949219 21.675781 L 40.390625 21.320312 L 40.742188 20.96875 L 41.363281 20.703125 L 41.628906 20.613281 L 41.628906 20.4375 L 42.421875 20.347656 L 42.421875 20.171875 L 43.925781 19.730469 L 45.605469 19.464844 Z M 46.664062 19.199219 " fill-opacity="1" fill-rule="nonzero"/><path fill="#ecb967" d="M 66.546875 27.773438 L 67.695312 27.773438 L 69.019531 28.128906 L 70.789062 28.925781 L 70.964844 29.101562 L 71.761719 29.367188 L 71.761719 29.542969 L 72.027344 29.542969 L 72.378906 29.898438 L 72.820312 30.160156 L 73.527344 30.425781 L 74.410156 30.957031 L 75.03125 31.222656 L 75.382812 31.578125 L 76.003906 31.84375 L 76.265625 32.285156 L 76.53125 32.550781 L 76.972656 32.726562 L 77.152344 32.902344 L 77.769531 33.167969 L 78.742188 34.230469 L 79.183594 34.671875 L 79.890625 35.289062 L 80.507812 35.996094 L 81.128906 36.792969 L 81.394531 36.96875 L 81.570312 37.410156 L 81.921875 37.855469 L 82.097656 38.296875 L 82.71875 39.269531 L 82.984375 39.886719 L 82.984375 40.242188 L 83.160156 40.242188 L 83.425781 40.769531 L 83.691406 42.097656 L 83.691406 44.128906 L 83.601562 45.367188 L 83.511719 45.722656 L 83.335938 45.722656 L 83.335938 46.253906 L 82.984375 46.960938 L 82.804688 47.402344 L 82.097656 48.550781 L 81.394531 49.523438 L 81.039062 50.054688 L 80.066406 51.027344 L 79.625 51.292969 L 78.566406 52.265625 L 77.238281 53.148438 L 76.53125 53.414062 L 76.089844 53.679688 L 75.207031 53.945312 L 74.851562 54.296875 L 74.148438 54.5625 L 73.441406 55.003906 L 72.027344 55.535156 L 71.496094 55.710938 L 71.40625 55.890625 L 70.433594 56.242188 L 69.816406 56.332031 L 68.402344 57.039062 L 66.8125 57.480469 L 66.371094 57.480469 L 66.371094 57.65625 L 64.867188 58.011719 L 63.984375 58.1875 L 63.011719 58.363281 L 61.773438 58.453125 L 61.332031 58.628906 L 56.914062 59.070312 L 56.914062 59.25 L 56.738281 59.335938 L 54.351562 59.335938 L 54.175781 59.160156 L 53.820312 59.160156 L 53.378906 59.601562 L 53.378906 59.335938 L 53.820312 58.453125 L 54.265625 57.570312 L 54.707031 56.949219 L 54.882812 56.332031 L 55.414062 55.359375 L 55.675781 55.269531 L 55.589844 55.800781 L 55.324219 55.976562 L 55.058594 56.417969 L 54.882812 57.039062 L 54.527344 57.746094 L 54.085938 58.453125 L 54.527344 58.1875 L 54.882812 57.921875 L 56.5625 57.480469 L 58.0625 57.214844 L 59.652344 57.039062 L 59.742188 56.949219 L 60.980469 56.863281 L 61.773438 56.597656 L 63.277344 56.242188 L 65.398438 55.890625 L 65.664062 55.890625 L 65.664062 55.710938 L 66.898438 55.445312 L 67.34375 55.269531 L 68.050781 55.269531 L 68.050781 55.09375 L 69.375 54.652344 L 70.082031 54.652344 L 70.082031 54.472656 L 70.699219 54.296875 L 70.699219 54.121094 L 71.847656 53.765625 L 72.027344 53.589844 L 72.554688 53.414062 L 72.910156 53.414062 L 72.910156 53.238281 L 74.234375 52.707031 L 74.5 52.617188 L 74.589844 52.441406 L 74.765625 52.441406 L 74.851562 52.175781 L 75.738281 51.820312 L 77.417969 50.585938 L 78.386719 49.878906 L 79.183594 49.347656 L 79.714844 48.640625 L 80.242188 48.019531 L 80.949219 47.046875 L 81.304688 46.339844 L 81.570312 45.988281 L 81.921875 44.925781 L 82.1875 44.574219 L 82.363281 44.042969 L 82.453125 43.335938 L 82.453125 41.65625 L 82.1875 40.417969 L 81.835938 39.535156 L 81.835938 39.355469 L 81.65625 39.355469 L 81.214844 38.472656 L 80.773438 37.765625 L 80.507812 37.324219 L 79.714844 36.351562 L 77.769531 34.40625 L 77.503906 34.316406 L 77.152344 33.875 L 76.445312 33.523438 L 76.179688 33.078125 L 75.296875 32.550781 L 75.296875 32.371094 L 74.851562 32.195312 L 73.882812 31.578125 L 72.820312 31.132812 L 72.820312 30.957031 L 72.203125 30.871094 L 71.847656 30.691406 L 71.847656 30.515625 L 71.40625 30.425781 L 70.875 30.074219 L 70.875 29.898438 L 69.992188 29.632812 L 69.726562 29.453125 L 68.578125 29.101562 L 68.136719 28.835938 L 68.136719 28.660156 L 67.34375 28.570312 L 67.34375 28.394531 L 66.898438 28.304688 L 66.457031 28.039062 Z M 66.546875 27.773438 " fill-opacity="1" fill-rule="nonzero"/><path fill="#e6b45d" d="M 22.097656 40.59375 L 22.363281 40.59375 L 22.363281 40.769531 L 21.65625 41.214844 L 20.773438 41.921875 L 20.597656 41.921875 L 20.507812 42.273438 L 20.066406 42.804688 L 19.890625 43.335938 L 19.710938 43.335938 L 19.625 44.042969 L 19.625 45.191406 L 20.066406 46.339844 L 21.039062 47.402344 L 21.65625 47.84375 L 21.832031 48.109375 L 22.628906 48.550781 L 24.308594 49.433594 L 25.632812 50.054688 L 26.515625 50.496094 L 28.371094 51.027344 L 29.167969 51.292969 L 29.960938 51.378906 L 30.492188 51.644531 L 31.375 51.820312 L 34.027344 52 L 34.644531 52.175781 L 34.734375 52.617188 L 34.382812 52.882812 L 32.4375 52.882812 L 31.023438 52.617188 L 29.785156 52.441406 L 28.195312 52.351562 L 25.984375 51.910156 L 24.835938 51.644531 L 24.308594 51.378906 L 23.246094 51.113281 L 22.804688 50.9375 L 21.832031 50.761719 L 21.746094 50.496094 L 21.039062 50.40625 L 20.507812 49.964844 L 19.710938 49.699219 L 19.09375 49.347656 L 19.09375 49.171875 L 18.738281 48.992188 L 17.679688 47.933594 L 17.238281 47.488281 L 16.882812 46.78125 L 16.882812 45.28125 L 17.148438 44.574219 L 17.769531 43.601562 L 18.652344 42.714844 L 19.890625 41.742188 L 20.507812 41.214844 L 21.566406 40.859375 Z M 22.097656 40.59375 " fill-opacity="1" fill-rule="nonzero"/><path fill="#f0bd67" d="M 70.699219 40.328125 L 71.496094 40.507812 L 71.496094 40.769531 L 71.9375 40.859375 L 72.378906 41.390625 L 72.820312 41.832031 L 73.175781 42.273438 L 73.527344 42.628906 L 73.617188 43.070312 L 73.792969 43.070312 L 73.792969 43.246094 L 73.96875 43.246094 L 74.148438 43.601562 L 74.148438 44.75 L 73.882812 45.457031 L 73.527344 46.164062 L 73.085938 46.429688 L 72.554688 47.3125 L 71.847656 48.019531 L 71.496094 48.199219 L 71.40625 48.460938 L 70.433594 48.90625 L 70.082031 49.082031 L 69.726562 49.082031 L 69.640625 49.347656 L 68.402344 49.789062 L 67.695312 50.054688 L 67.253906 50.054688 L 67.253906 50.230469 L 66.195312 50.671875 L 65.042969 50.9375 L 64.335938 51.027344 L 63.628906 51.292969 L 62.570312 51.558594 L 61.511719 51.644531 L 60.890625 51.820312 L 59.476562 52 L 58.949219 52 L 58.328125 51.734375 L 58.417969 51.46875 L 60.097656 51.292969 L 61.863281 50.9375 L 62.835938 50.585938 L 64.160156 50.40625 L 64.335938 50.230469 L 66.722656 49.433594 L 67.164062 49.171875 L 67.429688 49.171875 L 67.429688 48.992188 L 68.226562 48.640625 L 68.667969 48.199219 L 69.109375 47.933594 L 69.992188 47.226562 L 70.613281 46.519531 L 71.140625 45.808594 L 71.320312 45.367188 L 71.671875 44.839844 L 71.847656 43.777344 L 71.847656 42.363281 L 71.671875 41.65625 L 71.496094 41.65625 L 71.054688 41.125 L 71.054688 40.949219 L 70.699219 40.769531 L 70.523438 40.683594 L 70.523438 40.417969 Z M 70.699219 40.328125 " fill-opacity="1" fill-rule="nonzero"/><path fill="#faddaf" d="M 70.257812 40.59375 L 70.789062 40.769531 L 71.230469 41.214844 L 71.496094 41.476562 L 71.496094 41.65625 L 71.671875 41.65625 L 71.847656 41.921875 L 71.9375 42.363281 L 71.9375 43.777344 L 71.761719 44.839844 L 71.40625 45.367188 L 71.054688 46.074219 L 70.257812 47.046875 L 69.375 47.84375 L 68.933594 48.199219 L 68.402344 48.460938 L 68.050781 48.816406 L 67.695312 48.992188 L 67.429688 48.992188 L 67.429688 49.171875 L 66.546875 49.613281 L 65.222656 50.054688 L 64.335938 50.320312 L 64.160156 50.496094 L 62.835938 50.671875 L 61.863281 51.027344 L 60.097656 51.378906 L 58.417969 51.558594 L 58.417969 51.734375 L 58.949219 51.910156 L 60.183594 51.820312 L 61.332031 51.644531 L 61.511719 51.558594 L 62.570312 51.46875 L 63.628906 51.203125 L 64.335938 50.9375 L 65.929688 50.671875 L 67.078125 50.230469 L 67.253906 50.230469 L 67.253906 50.054688 L 68.757812 49.613281 L 69.640625 49.257812 L 69.726562 49.082031 L 70.433594 48.816406 L 71.140625 48.460938 L 71.40625 48.460938 L 71.496094 48.109375 L 72.027344 47.753906 L 72.734375 46.960938 L 73.085938 46.339844 L 73.175781 46.695312 L 72.554688 47.667969 L 71.847656 48.285156 L 71.054688 48.816406 L 70.082031 49.257812 L 69.816406 49.257812 L 69.816406 49.433594 L 68.933594 49.878906 L 68.136719 50.140625 L 67.34375 50.40625 L 66.898438 50.585938 L 66.015625 50.9375 L 65.574219 51.027344 L 64.425781 51.378906 L 63.367188 51.644531 L 62.039062 51.734375 L 61.953125 51.820312 L 60.449219 52.085938 L 58.59375 52.085938 L 58.152344 51.910156 L 58.242188 51.292969 L 57.976562 51.203125 L 57.976562 51.734375 L 57.710938 51.820312 L 57.089844 52.792969 L 56.828125 53.503906 L 56.296875 54.386719 L 56.121094 54.738281 L 55.941406 54.738281 L 55.941406 54.296875 L 56.472656 53.589844 L 56.738281 52.792969 L 57.003906 52.265625 L 57.535156 51.46875 L 57.796875 50.761719 L 58.0625 50.40625 L 58.242188 50.054688 L 58.417969 50.054688 L 58.59375 49.699219 L 58.59375 49.964844 L 58.417969 50.40625 L 58.242188 50.40625 L 58.152344 51.203125 L 60.449219 51.027344 L 60.449219 50.851562 L 61.511719 50.671875 L 63.808594 50.140625 L 64.601562 49.878906 L 66.195312 49.347656 L 67.605469 48.640625 L 68.578125 48.019531 L 68.84375 48.019531 L 69.019531 47.667969 L 69.640625 47.226562 L 70.082031 46.78125 L 70.699219 45.988281 L 70.875 45.988281 L 70.964844 45.632812 L 71.230469 45.191406 L 71.40625 45.191406 L 71.496094 44.394531 L 71.671875 43.6875 L 71.671875 42.628906 L 71.582031 41.921875 L 71.40625 41.921875 L 70.699219 41.035156 L 70.257812 40.769531 Z M 70.257812 40.59375 " fill-opacity="1" fill-rule="nonzero"/><path fill="#f8ce7f" d="M 66.546875 27.773438 L 67.695312 27.773438 L 69.019531 28.128906 L 70.789062 28.925781 L 70.964844 29.101562 L 71.761719 29.367188 L 71.761719 29.542969 L 72.027344 29.542969 L 72.378906 29.898438 L 72.820312 30.160156 L 73.527344 30.425781 L 74.410156 30.957031 L 75.03125 31.222656 L 75.382812 31.578125 L 76.003906 31.84375 L 76.265625 32.285156 L 76.53125 32.636719 L 76.089844 32.636719 L 76.621094 33.257812 L 76.621094 33.433594 L 77.152344 33.609375 L 77.679688 34.230469 L 77.503906 34.316406 L 77.152344 33.875 L 76.445312 33.523438 L 76.179688 33.078125 L 75.296875 32.550781 L 75.296875 32.371094 L 74.851562 32.195312 L 73.882812 31.578125 L 72.820312 31.132812 L 72.820312 30.957031 L 72.203125 30.871094 L 71.847656 30.691406 L 71.847656 30.515625 L 71.40625 30.425781 L 70.875 30.074219 L 70.875 29.898438 L 69.992188 29.632812 L 69.726562 29.453125 L 68.578125 29.101562 L 68.136719 28.835938 L 68.136719 28.660156 L 67.34375 28.570312 L 67.34375 28.394531 L 66.898438 28.304688 L 66.457031 28.039062 Z M 66.546875 27.773438 " fill-opacity="1" fill-rule="nonzero"/></svg>